<svg id="Amazon" xmlns="http://www.w3.org/2000/svg" viewBox="0 0 359.82 108.43"><defs><style>.cls-1{isolation:isolate;}.cls-2{fill:#080404;}.cls-3{fill:#f2941b;}</style></defs><title>amazon-formatted</title><g id="形状_4" data-name="形状 4" class="cls-1"><g id="形状_4-2" data-name="形状 4"><path class="cls-2" d="M293.86,69.74c-6.39-3.6-13.84-4.65-20.88-4.48l19-27.07c1.76-2.43,2.75-4,2.75-5.14V26A2,2,0,0,0,292.59,24H256A2,2,0,0,0,253.92,26v8.17A2,2,0,0,0,256,36.27h19.13l-22,31.51a9.85,9.85,0,0,0-1.36,5.61v8.29c0,1.2,1.33,2.57,2.61,1.89a42.16,42.16,0,0,1,38.68-.07c1.38,0.72,2.69-.67,2.69-1.87V72.93A3.73,3.73,0,0,0,293.86,69.74ZM166.52,22.93a15.81,15.81,0,0,0-15.38,10.58c-3.12-7.22-7.48-10.58-14.45-10.58s-12,3.37-14.66,10.58h-0.21V26a2.1,2.1,0,0,0-2-1.92H109.42a2.1,2.1,0,0,0-2.15,2.06V83.35a2.1,2.1,0,0,0,2,1.88h11.14a2.1,2.1,0,0,0,2.15-2.06V52.87c0-6.62-.31-15.76,7.69-15.76s6.86,9.38,6.86,15.76v30.3a2.09,2.09,0,0,0,2,2.05h11.12a2.1,2.1,0,0,0,2.15-2.06V52.87c0-3.25-.1-8.06,1-10.95a7.39,7.39,0,0,1,6.65-4.69c3.22,0,5.72,1.08,6.55,4.93,0.52,2.29.31,8.3,0.31,10.7v30.3a2.09,2.09,0,0,0,2,2.05h11.12a2.1,2.1,0,0,0,2.15-2.06V47.1c0-6.14.73-13.11-2.81-17.92A15.8,15.8,0,0,0,166.52,22.93Zm159.7,0c-16.11,0-25.05,13.83-25.05,31.63S310,86.43,326.21,86.43c15.59,0,25.47-13.83,25.47-31.27C351.68,37.12,342.74,22.93,326.21,22.93Zm0,51.72c-8.73,0-8.63-14.91-8.63-21.89s0.52-18.16,8.73-18.16c3.53,0,6,1.56,7.28,5.53,1.46,4.57,1.66,10.34,1.66,15.16C335.26,62.62,334.85,74.64,326.21,74.64Zm76.62-45c-3.12-4.93-8-6.74-13-6.74-7.69,0-12.06,3.73-15.17,11.55h-0.21V25.73a2.11,2.11,0,0,0-2-1.6H362.15A2.11,2.11,0,0,0,360,26l0,57.18a2.09,2.09,0,0,0,2,2.05h11.09a2.13,2.13,0,0,0,2.17-2.06V52.39c0-3.85.21-7.34,1.77-10.83A7.28,7.28,0,0,1,383.5,37c7.7,0,7,9.14,7,15.4v31a2.1,2.1,0,0,0,2,1.8h11.16a2.12,2.12,0,0,0,2.14-1.8v-36C405.75,41.93,405.75,34.23,402.83,29.66ZM240.36,64.44V47.08c0-7.35.52-14.11-4.9-19.17-4.27-4.1-11.35-5.55-16.77-5.55-10.6,0-22.42,4-24.9,17.05a2,2,0,0,0,1.66,2.33l10.79,1.17a2.36,2.36,0,0,0,1.93-2c0.93-4.51,4.7-6.69,9-6.69,2.29,0,4.9.84,6.25,2.89,1.56,2.29,1.35,5.42,1.35,8.08V46.6c-6.46.72-14.9,1.21-20.94,3.86-7,3-11.88,9.16-11.88,18.2,0,11.57,7.29,17.36,16.67,17.36,7.92,0,12.25-1.87,18.36-8.1,2,2.93,2.68,4.35,6.38,7.42a2.31,2.31,0,0,0,2.63-.26l0,0c2.22-2,6.27-5.49,8.54-7.4,0.91-.74.75-1.94,0-3C242.53,71.94,240.36,69.65,240.36,64.44Zm-17.71,5.31c-1.77,3.14-4.58,5.06-7.71,5.06-4.27,0-6.77-3.26-6.77-8.07,0-9.48,8.51-11.21,16.56-11.21v2.41C224.74,62.27,224.84,65.89,222.65,69.74ZM94.38,64.44V47.08c0-7.35.52-14.11-4.9-19.17-4.27-4.1-11.36-5.55-16.77-5.55-10.6,0-22.42,4-24.9,17.05a2,2,0,0,0,1.66,2.33l10.79,1.17a2.35,2.35,0,0,0,1.93-2c0.93-4.51,4.7-6.69,9-6.69,2.29,0,4.9.84,6.25,2.89,1.56,2.29,1.35,5.42,1.35,8.08V46.6c-6.46.72-14.9,1.21-20.94,3.86-7,3-11.88,9.16-11.88,18.2C45.93,80.23,53.22,86,62.6,86c7.92,0,12.25-1.87,18.36-8.1,2,2.93,2.68,4.35,6.38,7.42A2.31,2.31,0,0,0,90,85.08l0,0c2.22-2,6.27-5.49,8.54-7.4,0.91-.74.75-1.94,0-3C96.54,71.94,94.38,69.65,94.38,64.44ZM76.67,69.74c-1.77,3.14-4.58,5.06-7.71,5.06-4.27,0-6.77-3.26-6.77-8.07,0-9.48,8.51-11.21,16.56-11.21v2.41C78.75,62.27,78.85,65.89,76.67,69.74Z" transform="translate(-45.93 -22.37)"/></g></g><g id="形状_4-3" data-name="形状 4" class="cls-1"><g id="形状_4-4" data-name="形状 4"><path class="cls-3" d="M266.12,102.29A188,188,0,0,1,194,117c-34.35,0-67.61-9.42-94.5-25.07-2.35-1.37-4.1,1-2.14,2.81a139.91,139.91,0,0,0,94.44,36c26.1,0,56.41-8.21,77.31-23.63C272.62,104.62,269.65,100.79,266.12,102.29Zm20.66-11.86c-2.28-2.81-21.89-5.24-33.85,3.17-1.84,1.29-1.52,3.07.52,2.83,6.74-.8,21.74-2.61,24.42.82s-3,17.53-5.5,23.84c-0.77,1.9.88,2.68,2.6,1.23C286.18,112.92,289.07,93.27,286.78,90.43Z" transform="translate(-45.93 -22.37)"/></g></g></svg>