<?xml version="1.0" encoding="utf-8"?>
<!-- Generator: Adobe Illustrator 16.0.0, SVG Export Plug-In . SVG Version: 6.00 Build 0)  -->
<!DOCTYPE svg PUBLIC "-//W3C//DTD SVG 1.1//EN" "http://www.w3.org/Graphics/SVG/1.1/DTD/svg11.dtd">
<svg version="1.1" id="Calque_3" xmlns="http://www.w3.org/2000/svg" xmlns:xlink="http://www.w3.org/1999/xlink" x="0px" y="0px"
	 width="450px" height="240px" viewBox="0 0 450 240" enable-background="new 0 0 450 240" xml:space="preserve">
<g>
	<path fill-rule="evenodd" clip-rule="evenodd" d="M249.85,89.554c0.29-0.036,0.542-0.095,0.794-0.094
		c9.027,0.013,18.054-0.008,27.081,0.067c3.575,0.03,6.979,0.922,10.114,2.7c7.161,4.061,7.857,11.732,6.246,16.749
		c-0.907,2.827-2.843,4.825-5.331,6.335c-0.855,0.519-1.732,0.997-2.799,1.608c0.536,0.238,0.916,0.405,1.295,0.575
		c9.378,4.222,11.026,14.039,9,20.174c-1.766,5.347-5.789,8.41-10.968,10.044c-1.639,0.516-3.422,0.794-5.141,0.807
		c-9.769,0.075-19.54,0.036-29.31,0.035c-0.294,0-0.587-0.031-0.982-0.056C249.85,128.842,249.85,109.22,249.85,89.554z
		 M260.871,139.362c0.23,0.051,0.336,0.096,0.443,0.096c4.495,0.003,8.996,0.133,13.486-0.03c6.222-0.225,9.732-4.346,8.958-10.29
		c-0.393-3-1.898-5.264-4.837-6.237c-1.422-0.472-2.972-0.722-4.471-0.756c-4.197-0.102-8.397-0.037-12.596-0.032
		c-0.32,0-0.639,0.046-0.984,0.075C260.871,127.953,260.871,133.626,260.871,139.362z M260.658,113.135
		c0.21,0.062,0.314,0.121,0.419,0.12c4.639-0.021,9.285,0.082,13.916-0.144c1.552-0.075,3.188-0.766,4.569-1.555
		c3.797-2.173,4.702-8.891-0.397-11.442c-1.693-0.848-3.484-1.231-5.371-1.228c-4.011,0.008-8.021,0-12.031,0.004
		c-0.354,0-0.711,0.044-1.104,0.07C260.658,103.734,260.658,108.4,260.658,113.135z"/>
	<path fill-rule="evenodd" clip-rule="evenodd" d="M210.934,114.645c-0.837-1.133-1.726-2.264-2.539-3.448
		c-2.057-2.995-3.44-6.21-3.347-9.954c0.181-7.355,4.956-12.528,12.303-13.228c3.183-0.304,6.306-0.081,9.301,1.159
		c10.349,4.283,11.178,16.905,4.654,23.275c-1.269,1.239-2.731,2.28-4.109,3.408c-0.483,0.394-0.985,0.765-1.558,1.209
		c2.43,3.343,4.801,6.609,7.308,10.061c1.854-2.984,2.953-6.085,3.571-9.448c3.144,0,6.282,0,9.628,0
		c-0.359,1.784-0.64,3.522-1.067,5.224c-1.082,4.313-2.531,8.471-5.476,11.931c-0.481,0.565-0.043,0.87,0.234,1.232
		c2.832,3.725,5.673,7.445,8.51,11.166c0.269,0.353,0.523,0.715,0.896,1.222c-0.437,0.043-0.738,0.099-1.042,0.099
		c-3.528,0.005-7.059-0.011-10.589,0.018c-0.662,0.004-1.095-0.209-1.496-0.733c-1.216-1.593-2.483-3.146-3.788-4.789
		c-2.161,1.986-4.615,3.413-7.247,4.561c-2.955,1.29-5.969,2.245-9.262,1.945c-0.884-0.081-1.782-0.013-2.674-0.013
		c-11.957,0-19.734-11.906-14.886-22.864c2.364-5.347,6.55-8.902,11.693-11.446c0.297-0.146,0.6-0.284,0.896-0.433
		C210.876,114.784,210.886,114.735,210.934,114.645z M216.75,122.52c-2.978,2.003-5.659,4.092-7.575,7.015
		c-1.479,2.258-1.691,4.608-0.273,6.925c1.484,2.426,3.792,3.848,6.598,3.642c4.12-0.302,7.579-2.363,10.855-4.922
		C223.126,130.924,219.967,126.76,216.75,122.52z M219.8,109.838c1.631-1.502,3.123-2.731,4.434-4.13
		c1.231-1.312,1.68-2.984,1.238-4.763c-0.53-2.135-1.927-3.51-4.088-3.934c-2.185-0.429-4.043,0.271-5.419,2.049
		c-1.351,1.744-1.295,3.646-0.167,5.405C216.949,106.263,218.344,107.904,219.8,109.838z"/>
	<path fill-rule="evenodd" clip-rule="evenodd" d="M63.836,124.74c-0.394,1.494-0.696,3.014-1.195,4.468
		c-2.749,8.02-8.294,13.479-15.818,17.085c-19.151,9.181-38.86-3.702-43.495-18.917C-1.995,109.9,8.246,89.928,28.516,86.615
		c17.259-2.821,33.105,9.303,35.793,26.249c0.033,0.211,0.004,0.433,0.004,0.772c-1.42,0-2.824,0-4.228,0
		c-1.933,0-3.867-0.06-5.795,0.024c-0.934,0.041-1.244-0.313-1.528-1.147c-2.186-6.443-6.302-11.199-12.756-13.534
		c-12.416-4.495-27.137,4.551-26.523,19.674c0.481,11.879,10.33,20.169,22.218,18.911c6.58-0.695,11.61-3.825,15.018-9.501
		c0.53-0.882,0.82-1.905,1.296-2.822c0.147-0.287,0.539-0.632,0.823-0.635c3.492-0.038,6.983-0.021,10.476-0.014
		C63.418,124.592,63.522,124.648,63.836,124.74z"/>
	<path fill-rule="evenodd" clip-rule="evenodd" d="M195.725,134.409c-0.456,1.23-0.736,2.304-1.233,3.269
		c-3.958,7.686-10.345,11.604-18.932,11.665c-11.923,0.085-21.269-8.415-22.704-20.273c-0.814-6.729,0.439-12.882,4.713-18.236
		c4.356-5.458,10.139-7.903,17.077-7.785c11.419,0.192,18.304,7.926,20.554,17.79c0.533,2.338,0.621,4.776,0.889,7.172
		c0.048,0.427-0.033,0.867-0.061,1.429c-10.739,0-21.381,0-32.096,0c-0.001,2.567,0.934,4.627,2.594,6.318
		c3.097,3.152,6.875,4.271,11.207,3.399c2.423-0.487,4.229-1.946,5.6-3.938c0.438-0.636,0.918-0.831,1.655-0.821
		c3.121,0.032,6.242,0.013,9.363,0.013C194.714,134.409,195.074,134.409,195.725,134.409z M183.481,120.954
		c-0.084-3.454-1.459-6.101-4.399-7.708c-3.574-1.953-7.218-1.836-10.66,0.375c-2.602,1.673-3.92,4.131-3.973,7.333
		C170.814,120.954,177.068,120.954,183.481,120.954z"/>
	<path fill-rule="evenodd" clip-rule="evenodd" d="M435.578,129.529c-10.714,0-21.293,0-31.971,0
		c-0.034,2.058,0.64,3.771,1.773,5.333c2.939,4.047,8.993,5.731,13.605,3.802c1.707-0.715,2.96-1.935,3.998-3.433
		c0.203-0.293,0.596-0.643,0.905-0.648c3.673-0.045,7.346-0.027,11.209-0.027c-0.186,0.705-0.286,1.315-0.504,1.877
		c-2.644,6.78-7.703,10.844-14.661,12.408c-12.902,2.901-25.084-5.657-27.153-18.801c-1.027-6.525-0.074-12.604,3.787-18.04
		c4.334-6.101,10.353-8.909,17.805-8.735c11.32,0.263,17.982,7.979,20.338,17.402C435.422,123.52,435.771,126.414,435.578,129.529z
		 M423.037,121.087c0.373-2.789-1.365-6.086-4.175-7.6c-3.791-2.042-7.584-1.857-11.127,0.596c-2.381,1.646-3.593,4.004-3.604,7.004
		C410.552,121.087,416.8,121.087,423.037,121.087z"/>
	<path fill-rule="evenodd" clip-rule="evenodd" d="M101.774,117.843c-3.298,0-6.518,0-9.851,0c0.103-3.972,1.281-7.396,4.333-10.007
		c2.477-2.119,5.445-3.142,8.604-3.646c5.197-0.833,10.358-0.834,15.387,0.985c6.02,2.178,9.031,6.481,9.035,12.854
		c0.003,5.684,0.027,11.366-0.008,17.048c-0.028,4.493-0.144,8.988,1.626,13.339c-0.284,0.062-0.454,0.13-0.622,0.13
		c-3.194,0.008-6.388-0.011-9.583,0.023c-0.67,0.006-0.909-0.27-1.018-0.874c-0.148-0.831-0.369-1.649-0.568-2.509
		c-0.186,0.04-0.306,0.032-0.378,0.087c-4.123,3.135-8.73,4.543-13.94,4.309c-3.569-0.161-6.804-1.118-9.707-3.121
		c-7.406-5.103-7.505-15.418-0.23-20.713c3.114-2.265,6.695-3.309,10.444-3.851c2.828-0.408,5.669-0.723,8.498-1.13
		c0.798-0.116,1.603-0.339,2.348-0.649c1.9-0.787,2.572-2.467,1.791-4.377c-0.857-2.102-2.554-3.236-4.65-3.801
		c-1.963-0.529-3.967-0.53-5.962-0.133c-2.698,0.541-4.387,2.189-5.187,4.792c-0.064,0.214-0.104,0.433-0.165,0.648
		C101.921,117.426,101.857,117.599,101.774,117.843z M117.476,126.534c-4.505,1.265-8.765,2.407-12.988,3.677
		c-1.04,0.312-2.035,0.93-2.916,1.587c-2.605,1.947-2.615,5.572-0.024,7.544c0.721,0.55,1.59,1.049,2.463,1.23
		c3.829,0.785,7.459,0.167,10.723-2.033c0.675-0.455,1.214-1.209,1.634-1.932C118.158,133.527,117.757,130.192,117.476,126.534z"/>
	<path fill-rule="evenodd" clip-rule="evenodd" d="M328.824,148.439c-0.251-1.045-0.51-2.12-0.809-3.367
		c-0.534,0.367-0.997,0.699-1.476,1.01c-6.817,4.431-13.957,4.893-21.11,1.138c-8.954-4.705-9.27-16.435-0.744-21.89
		c3.198-2.048,6.792-2.92,10.497-3.435c2.683-0.373,5.368-0.727,8.052-1.099c0.366-0.053,0.728-0.15,1.082-0.257
		c3.056-0.914,3.819-3.245,1.901-5.818c-1.279-1.714-3.074-2.573-5.13-2.81c-1.316-0.153-2.678-0.156-3.996-0.009
		c-3.075,0.349-4.996,2.107-5.789,5.201c-0.165,0.638-0.348,0.95-1.071,0.94c-2.784-0.037-5.571-0.014-8.357-0.021
		c-0.217,0-0.431-0.057-0.74-0.101c-0.087-3.449,0.914-6.46,3.27-8.958c2.247-2.383,5.12-3.65,8.267-4.306
		c5.588-1.163,11.154-1.211,16.574,0.801c4.628,1.717,7.882,4.798,8.609,9.879c0.33,2.302,0.275,4.669,0.279,7.007
		c0.014,5.462-0.076,10.921-0.054,16.384c0.008,1.626,0.146,3.268,0.41,4.871c0.263,1.602,0.759,3.165,1.175,4.838
		C336.124,148.439,332.519,148.439,328.824,148.439z M327.358,126.807c-4.676,1.293-9.429,1.999-13.791,4.052
		c-0.696,0.328-1.361,0.778-1.94,1.285c-2.472,2.157-2.173,5.856,0.611,7.57c0.622,0.385,1.321,0.706,2.029,0.88
		c3.117,0.768,6.11,0.173,9.005-1.025c2.061-0.854,3.3-2.496,3.906-4.587C327.948,132.327,327.712,129.635,327.358,126.807z"/>
	<path fill-rule="evenodd" clip-rule="evenodd" d="M135.471,103.655c0-4.492,0-8.788,0-13.166c3.813,0,7.536,0,11.372,0
		c0,4.474,0,8.913,0,13.49c2.537,0,4.967,0,7.473,0c0,2.754,0,5.37,0,8.134c-2.461,0-4.889,0-7.45,0c0,0.544,0,0.939,0,1.335
		c0,7.279-0.002,14.558,0.001,21.837c0.001,3.305,1.333,4.727,4.67,4.925c1.035,0.06,2.078,0.003,3.117-0.009
		c0.485-0.007,0.887,0.027,0.883,0.685c-0.015,2.561-0.006,5.12-0.006,7.722c-0.262,0.063-0.468,0.159-0.673,0.159
		c-3.378-0.021-6.763,0.072-10.133-0.114c-5.597-0.312-9.187-4.1-9.231-9.718c-0.067-8.43-0.023-16.859-0.025-25.291
		c0-0.44,0-0.881,0-1.472c-1.878,0-3.676,0-5.65,0c0-1.28,0-2.416,0-3.551c0-1.336,0.029-2.674-0.01-4.01
		c-0.021-0.715,0.217-0.99,0.957-0.969C132.28,103.687,133.797,103.655,135.471,103.655z"/>
	<path fill-rule="evenodd" clip-rule="evenodd" d="M366.146,114.341c-2.026,0-3.909-0.251-5.695,0.057
		c-2.854,0.495-4.794,2.375-6.017,4.984c-1.21,2.584-1.484,5.344-1.484,8.146c0,6.608,0.018,13.219,0.024,19.829
		c0,0.328-0.03,0.659-0.052,1.093c-3.803,0-7.565,0-11.441,0c0-14.354,0-28.732,0-43.204c3.706,0,7.432,0,11.302,0
		c0,1.262,0,2.54,0,4.091c0.445-0.398,0.666-0.617,0.907-0.808c1.42-1.127,2.776-2.352,4.284-3.345
		c2.232-1.472,4.758-1.812,7.374-1.366c0.295,0.05,0.76,0.423,0.763,0.651C366.159,107.766,366.146,111.063,366.146,114.341z"/>
	<path fill-rule="evenodd" clip-rule="evenodd" d="M90.881,103.716c0,3.542,0,7.02,0,10.506c-1.048-0.119-2.033-0.306-3.021-0.33
		c-4.065-0.104-7.168,1.902-8.771,5.641c-1.044,2.434-1.331,5.007-1.329,7.629c0.006,6.65,0.013,13.302,0.018,19.953
		c0,0.436,0,0.871,0,1.374c-3.828,0-7.527,0-11.309,0c0-14.484,0-28.918,0-43.451c3.591,0,7.209,0,10.97,0c0,1.263,0,2.576,0,4.188
		C81.255,105.364,85.215,102.525,90.881,103.716z"/>
	<path fill-rule="evenodd" clip-rule="evenodd" d="M380.005,148.47c-3.717,0-7.411,0-11.18,0c0-14.413,0-28.772,0-43.225
		c3.627,0,7.243,0,10.999,0c0,1.299,0,2.61,0,4.223c3.815-3.973,7.846-6.74,13.532-5.538c0,3.479,0,6.984,0,10.49
		c-1.108-0.11-2.206-0.301-3.307-0.316c-4.151-0.056-7.28,2.063-8.828,5.91c-1.018,2.532-1.189,5.183-1.176,7.876
		c0.034,6.616,0.022,13.23,0.025,19.845C380.071,147.951,380.033,148.171,380.005,148.47z"/>
	<path fill-rule="evenodd" clip-rule="evenodd" d="M437.696,89.83c3.413,0,6.74,0,10.125,0c0,19.544,0,39.027,0,58.621
		c-3.347,0-6.695,0-10.125,0C437.696,128.938,437.696,109.429,437.696,89.83z"/>
	<path fill-rule="evenodd" clip-rule="evenodd" fill="none" d="M260.871,139.362c0-5.736,0-11.409,0-17.175
		c0.346-0.029,0.664-0.075,0.984-0.075c4.198-0.005,8.398-0.069,12.596,0.032c1.499,0.034,3.049,0.284,4.471,0.756
		c2.938,0.974,4.444,3.237,4.837,6.237c0.774,5.944-2.736,10.065-8.958,10.29c-4.49,0.163-8.991,0.033-13.486,0.03
		C261.207,139.458,261.102,139.413,260.871,139.362z"/>
	<path fill-rule="evenodd" clip-rule="evenodd" fill="none" d="M260.658,113.135c0-4.735,0-9.4,0-14.173
		c0.394-0.026,0.75-0.07,1.104-0.07c4.01-0.004,8.021,0.003,12.031-0.004c1.887-0.004,3.678,0.38,5.371,1.228
		c5.1,2.551,4.194,9.27,0.397,11.442c-1.381,0.789-3.018,1.479-4.569,1.555c-4.631,0.226-9.277,0.123-13.916,0.144
		C260.973,113.256,260.868,113.196,260.658,113.135z"/>
	<path fill-rule="evenodd" clip-rule="evenodd" fill="none" d="M216.75,122.52c3.216,4.24,6.375,8.404,9.605,12.659
		c-3.277,2.559-6.735,4.62-10.855,4.922c-2.806,0.206-5.114-1.216-6.598-3.642c-1.417-2.316-1.206-4.667,0.273-6.925
		C211.091,126.611,213.772,124.522,216.75,122.52z"/>
	<path fill-rule="evenodd" clip-rule="evenodd" fill="none" d="M219.8,109.838c-1.456-1.934-2.851-3.575-4.002-5.373
		c-1.128-1.758-1.184-3.661,0.167-5.405c1.376-1.778,3.234-2.478,5.419-2.049c2.162,0.424,3.559,1.799,4.088,3.934
		c0.442,1.779-0.007,3.451-1.238,4.763C222.922,107.107,221.431,108.336,219.8,109.838z"/>
	<path fill-rule="evenodd" clip-rule="evenodd" fill="none" d="M183.481,120.954c-6.413,0-12.667,0-19.032,0
		c0.053-3.202,1.371-5.66,3.973-7.333c3.442-2.211,7.086-2.328,10.66-0.375C182.022,114.854,183.397,117.5,183.481,120.954z"/>
	<path fill-rule="evenodd" clip-rule="evenodd" fill="none" d="M423.037,121.087c-6.237,0-12.485,0-18.905,0
		c0.011-3,1.223-5.357,3.604-7.004c3.543-2.453,7.336-2.638,11.127-0.596C421.672,115.001,423.41,118.298,423.037,121.087z"/>
	<path fill-rule="evenodd" clip-rule="evenodd" fill="none" d="M117.476,126.534c0.281,3.658,0.682,6.993-1.108,10.073
		c-0.419,0.723-0.958,1.477-1.634,1.932c-3.264,2.2-6.894,2.818-10.723,2.033c-0.873-0.182-1.742-0.681-2.463-1.23
		c-2.59-1.972-2.581-5.597,0.024-7.544c0.881-0.657,1.876-1.275,2.916-1.587C108.71,128.941,112.97,127.799,117.476,126.534z"/>
	<path fill-rule="evenodd" clip-rule="evenodd" fill="none" d="M327.358,126.807c0.354,2.828,0.59,5.521-0.18,8.175
		c-0.606,2.091-1.846,3.733-3.906,4.587c-2.895,1.198-5.888,1.793-9.005,1.025c-0.708-0.174-1.407-0.495-2.029-0.88
		c-2.784-1.714-3.083-5.413-0.611-7.57c0.579-0.507,1.244-0.957,1.94-1.285C317.93,128.806,322.683,128.1,327.358,126.807z"/>
</g>
</svg>
