<?xml version="1.0" encoding="utf-8"?>
<!-- Generator: Adobe Illustrator 19.2.1, SVG Export Plug-In . SVG Version: 6.00 Build 0)  -->
<svg version="1.1" xmlns="http://www.w3.org/2000/svg" xmlns:xlink="http://www.w3.org/1999/xlink" x="0px" y="0px"
	 viewBox="0 0 450 168" style="enable-background:new 0 0 450 168;" xml:space="preserve">
<style type="text/css">
	.st0{fill:none;}
	.st1{display:none;}
	.st2{display:inline;enable-background:new    ;}
	.st3{fill:#080404;}
	.st4{fill:#F2941B;}
</style>
<g id="Calque_3">
	<g>
		<path d="M250,26c0.3,0,0.5-0.1,0.8-0.1c9,0,18.1,0,27.1,0.1c3.6,0,7,0.9,10.1,2.7c7.2,4.1,7.9,11.7,6.2,16.7
			c-0.9,2.8-2.8,4.8-5.3,6.3c-0.9,0.5-1.7,1-2.8,1.6c0.5,0.2,0.9,0.4,1.3,0.6c9.4,4.2,11,14,9,20.2c-1.8,5.3-5.8,8.4-11,10
			c-1.6,0.5-3.4,0.8-5.1,0.8c-9.8,0.1-19.5,0-29.3,0c-0.3,0-0.6,0-1-0.1C250,65.3,250,45.7,250,26z M261,75.8
			c0.2,0.1,0.3,0.1,0.4,0.1c4.5,0,9,0.1,13.5,0c6.2-0.2,9.7-4.3,9-10.3c-0.4-3-1.9-5.3-4.8-6.2c-1.4-0.5-3-0.7-4.5-0.8
			c-4.2-0.1-8.4,0-12.6,0c-0.3,0-0.6,0-1,0.1C261,64.4,261,70.1,261,75.8z M260.8,49.6c0.2,0.1,0.3,0.1,0.4,0.1
			c4.6,0,9.3,0.1,13.9-0.1c1.6-0.1,3.2-0.8,4.6-1.6c3.8-2.2,4.7-8.9-0.4-11.4c-1.7-0.8-3.5-1.2-5.4-1.2c-4,0-8,0-12,0
			c-0.4,0-0.7,0-1.1,0.1C260.8,40.2,260.8,44.9,260.8,49.6z"/>
		<path d="M211.1,51.1c-0.8-1.1-1.7-2.3-2.5-3.4c-2.1-3-3.4-6.2-3.3-10c0.2-7.4,5-12.5,12.3-13.2c3.2-0.3,6.3-0.1,9.3,1.2
			c10.3,4.3,11.2,16.9,4.7,23.3c-1.3,1.2-2.7,2.3-4.1,3.4c-0.5,0.4-1,0.8-1.6,1.2c2.4,3.3,4.8,6.6,7.3,10.1c1.9-3,3-6.1,3.6-9.4
			c3.1,0,6.3,0,9.6,0c-0.4,1.8-0.6,3.5-1.1,5.2c-1.1,4.3-2.5,8.5-5.5,11.9c-0.5,0.6,0,0.9,0.2,1.2c2.8,3.7,5.7,7.4,8.5,11.2
			c0.3,0.4,0.5,0.7,0.9,1.2c-0.4,0-0.7,0.1-1,0.1c-3.5,0-7.1,0-10.6,0c-0.7,0-1.1-0.2-1.5-0.7c-1.2-1.6-2.5-3.1-3.8-4.8
			c-2.2,2-4.6,3.4-7.2,4.6c-3,1.3-6,2.2-9.3,1.9c-0.9-0.1-1.8,0-2.7,0c-12,0-19.7-11.9-14.9-22.9c2.4-5.3,6.6-8.9,11.7-11.4
			c0.3-0.1,0.6-0.3,0.9-0.4C211,51.2,211,51.2,211.1,51.1z M216.9,59c-3,2-5.7,4.1-7.6,7c-1.5,2.3-1.7,4.6-0.3,6.9
			c1.5,2.4,3.8,3.8,6.6,3.6c4.1-0.3,7.6-2.4,10.9-4.9C223.2,67.4,220.1,63.2,216.9,59z M219.9,46.3c1.6-1.5,3.1-2.7,4.4-4.1
			c1.2-1.3,1.7-3,1.2-4.8c-0.5-2.1-1.9-3.5-4.1-3.9c-2.2-0.4-4,0.3-5.4,2c-1.4,1.7-1.3,3.6-0.2,5.4
			C217.1,42.7,218.5,44.4,219.9,46.3z"/>
		<path d="M64,61.2c-0.4,1.5-0.7,3-1.2,4.5c-2.7,8-8.3,13.5-15.8,17.1C27.8,91.9,8.1,79,3.5,63.8c-5.3-17.5,4.9-37.4,25.2-40.8
			c17.3-2.8,33.1,9.3,35.8,26.2c0,0.2,0,0.4,0,0.8c-1.4,0-2.8,0-4.2,0c-1.9,0-3.9-0.1-5.8,0c-0.9,0-1.2-0.3-1.5-1.1
			c-2.2-6.4-6.3-11.2-12.8-13.5C27.7,30.9,13,40,13.6,55.1C14.1,67,23.9,75.3,35.8,74c6.6-0.7,11.6-3.8,15-9.5
			c0.5-0.9,0.8-1.9,1.3-2.8c0.1-0.3,0.5-0.6,0.8-0.6c3.5,0,7,0,10.5,0C63.5,61,63.6,61.1,64,61.2z"/>
		<path d="M195.8,70.9c-0.5,1.2-0.7,2.3-1.2,3.3c-4,7.7-10.3,11.6-18.9,11.7c-11.9,0.1-21.3-8.4-22.7-20.3
			c-0.8-6.7,0.4-12.9,4.7-18.2c4.4-5.5,10.1-7.9,17.1-7.8c11.4,0.2,18.3,7.9,20.6,17.8c0.5,2.3,0.6,4.8,0.9,7.2c0,0.4,0,0.9-0.1,1.4
			c-10.7,0-21.4,0-32.1,0c0,2.6,0.9,4.6,2.6,6.3c3.1,3.2,6.9,4.3,11.2,3.4c2.4-0.5,4.2-1.9,5.6-3.9c0.4-0.6,0.9-0.8,1.7-0.8
			c3.1,0,6.2,0,9.4,0C194.8,70.9,195.2,70.9,195.8,70.9z M183.6,57.4c-0.1-3.5-1.5-6.1-4.4-7.7c-3.6-2-7.2-1.8-10.7,0.4
			c-2.6,1.7-3.9,4.1-4,7.3C170.9,57.4,177.2,57.4,183.6,57.4z"/>
		<path d="M435.7,66c-10.7,0-21.3,0-32,0c0,2.1,0.6,3.8,1.8,5.3c2.9,4,9,5.7,13.6,3.8c1.7-0.7,3-1.9,4-3.4c0.2-0.3,0.6-0.6,0.9-0.6
			c3.7,0,7.3,0,11.2,0c-0.2,0.7-0.3,1.3-0.5,1.9c-2.6,6.8-7.7,10.8-14.7,12.4c-12.9,2.9-25.1-5.7-27.2-18.8c-1-6.5-0.1-12.6,3.8-18
			c4.3-6.1,10.4-8.9,17.8-8.7c11.3,0.3,18,8,20.3,17.4C435.5,60,435.9,62.9,435.7,66z M423.2,57.5c0.4-2.8-1.4-6.1-4.2-7.6
			c-3.8-2-7.6-1.9-11.1,0.6c-2.4,1.6-3.6,4-3.6,7C410.7,57.5,416.9,57.5,423.2,57.5z"/>
		<path d="M101.9,54.3c-3.3,0-6.5,0-9.9,0c0.1-4,1.3-7.4,4.3-10c2.5-2.1,5.4-3.1,8.6-3.6c5.2-0.8,10.4-0.8,15.4,1
			c6,2.2,9,6.5,9,12.9c0,5.7,0,11.4,0,17c0,4.5-0.1,9,1.6,13.3c-0.3,0.1-0.5,0.1-0.6,0.1c-3.2,0-6.4,0-9.6,0c-0.7,0-0.9-0.3-1-0.9
			c-0.1-0.8-0.4-1.6-0.6-2.5c-0.2,0-0.3,0-0.4,0.1c-4.1,3.1-8.7,4.5-13.9,4.3c-3.6-0.2-6.8-1.1-9.7-3.1c-7.4-5.1-7.5-15.4-0.2-20.7
			c3.1-2.3,6.7-3.3,10.4-3.9c2.8-0.4,5.7-0.7,8.5-1.1c0.8-0.1,1.6-0.3,2.3-0.6c1.9-0.8,2.6-2.5,1.8-4.4c-0.9-2.1-2.6-3.2-4.7-3.8
			c-2-0.5-4-0.5-6-0.1c-2.7,0.5-4.4,2.2-5.2,4.8c-0.1,0.2-0.1,0.4-0.2,0.6C102,53.9,102,54.1,101.9,54.3z M117.6,63
			c-4.5,1.3-8.8,2.4-13,3.7c-1,0.3-2,0.9-2.9,1.6c-2.6,1.9-2.6,5.6,0,7.5c0.7,0.6,1.6,1,2.5,1.2c3.8,0.8,7.5,0.2,10.7-2
			c0.7-0.5,1.2-1.2,1.6-1.9C118.3,70,117.9,66.6,117.6,63z"/>
		<path d="M328.9,84.9c-0.3-1-0.5-2.1-0.8-3.4c-0.5,0.4-1,0.7-1.5,1c-6.8,4.4-14,4.9-21.1,1.1c-9-4.7-9.3-16.4-0.7-21.9
			c3.2-2,6.8-2.9,10.5-3.4c2.7-0.4,5.4-0.7,8.1-1.1c0.4-0.1,0.7-0.2,1.1-0.3c3.1-0.9,3.8-3.2,1.9-5.8c-1.3-1.7-3.1-2.6-5.1-2.8
			c-1.3-0.2-2.7-0.2-4,0c-3.1,0.3-5,2.1-5.8,5.2c-0.2,0.6-0.3,0.9-1.1,0.9c-2.8,0-5.6,0-8.4,0c-0.2,0-0.4-0.1-0.7-0.1
			c-0.1-3.4,0.9-6.5,3.3-9c2.2-2.4,5.1-3.7,8.3-4.3c5.6-1.2,11.2-1.2,16.6,0.8c4.6,1.7,7.9,4.8,8.6,9.9c0.3,2.3,0.3,4.7,0.3,7
			c0,5.5-0.1,10.9-0.1,16.4c0,1.6,0.1,3.3,0.4,4.9c0.3,1.6,0.8,3.2,1.2,4.8C336.2,84.9,332.6,84.9,328.9,84.9z M327.5,63.3
			c-4.7,1.3-9.4,2-13.8,4.1c-0.7,0.3-1.4,0.8-1.9,1.3c-2.5,2.2-2.2,5.9,0.6,7.6c0.6,0.4,1.3,0.7,2,0.9c3.1,0.8,6.1,0.2,9-1
			c2.1-0.9,3.3-2.5,3.9-4.6C328.1,68.8,327.8,66.1,327.5,63.3z"/>
		<path d="M135.6,40.1c0-4.5,0-8.8,0-13.2c3.8,0,7.5,0,11.4,0c0,4.5,0,8.9,0,13.5c2.5,0,5,0,7.5,0c0,2.8,0,5.4,0,8.1
			c-2.5,0-4.9,0-7.4,0c0,0.5,0,0.9,0,1.3c0,7.3,0,14.6,0,21.8c0,3.3,1.3,4.7,4.7,4.9c1,0.1,2.1,0,3.1,0c0.5,0,0.9,0,0.9,0.7
			c0,2.6,0,5.1,0,7.7c-0.3,0.1-0.5,0.2-0.7,0.2c-3.4,0-6.8,0.1-10.1-0.1c-5.6-0.3-9.2-4.1-9.2-9.7c-0.1-8.4,0-16.9,0-25.3
			c0-0.4,0-0.9,0-1.5c-1.9,0-3.7,0-5.6,0c0-1.3,0-2.4,0-3.6c0-1.3,0-2.7,0-4c0-0.7,0.2-1,1-1C132.4,40.1,133.9,40.1,135.6,40.1z"/>
		<path d="M366.3,50.8c-2,0-3.9-0.3-5.7,0.1c-2.9,0.5-4.8,2.4-6,5c-1.2,2.6-1.5,5.3-1.5,8.1c0,6.6,0,13.2,0,19.8
			c0,0.3,0,0.7-0.1,1.1c-3.8,0-7.6,0-11.4,0c0-14.4,0-28.7,0-43.2c3.7,0,7.4,0,11.3,0c0,1.3,0,2.5,0,4.1c0.4-0.4,0.7-0.6,0.9-0.8
			c1.4-1.1,2.8-2.4,4.3-3.3c2.2-1.5,4.8-1.8,7.4-1.4c0.3,0.1,0.8,0.4,0.8,0.7C366.3,44.2,366.3,47.5,366.3,50.8z"/>
		<path d="M91,40.2c0,3.5,0,7,0,10.5c-1-0.1-2-0.3-3-0.3c-4.1-0.1-7.2,1.9-8.8,5.6c-1,2.4-1.3,5-1.3,7.6c0,6.7,0,13.3,0,20
			c0,0.4,0,0.9,0,1.4c-3.8,0-7.5,0-11.3,0c0-14.5,0-28.9,0-43.5c3.6,0,7.2,0,11,0c0,1.3,0,2.6,0,4.2C81.4,41.8,85.3,39,91,40.2z"/>
		<path d="M380.1,84.9c-3.7,0-7.4,0-11.2,0c0-14.4,0-28.8,0-43.2c3.6,0,7.2,0,11,0c0,1.3,0,2.6,0,4.2c3.8-4,7.8-6.7,13.5-5.5
			c0,3.5,0,7,0,10.5c-1.1-0.1-2.2-0.3-3.3-0.3c-4.2-0.1-7.3,2.1-8.8,5.9c-1,2.5-1.2,5.2-1.2,7.9c0,6.6,0,13.2,0,19.8
			C380.2,84.4,380.2,84.6,380.1,84.9z"/>
		<path d="M437.8,26.3c3.4,0,6.7,0,10.1,0c0,19.5,0,39,0,58.6c-3.3,0-6.7,0-10.1,0C437.8,65.4,437.8,45.9,437.8,26.3z"/>
		<path class="st0" d="M261,75.8c0-5.7,0-11.4,0-17.2c0.3,0,0.7-0.1,1-0.1c4.2,0,8.4-0.1,12.6,0c1.5,0,3,0.3,4.5,0.8
			c2.9,1,4.4,3.2,4.8,6.2c0.8,5.9-2.7,10.1-9,10.3c-4.5,0.2-9,0-13.5,0C261.3,75.9,261.2,75.9,261,75.8z"/>
		<path class="st0" d="M260.8,49.6c0-4.7,0-9.4,0-14.2c0.4,0,0.8-0.1,1.1-0.1c4,0,8,0,12,0c1.9,0,3.7,0.4,5.4,1.2
			c5.1,2.6,4.2,9.3,0.4,11.4c-1.4,0.8-3,1.5-4.6,1.6c-4.6,0.2-9.3,0.1-13.9,0.1C261.1,49.7,261,49.7,260.8,49.6z"/>
		<path class="st0" d="M216.9,59c3.2,4.2,6.4,8.4,9.6,12.7c-3.3,2.6-6.7,4.6-10.9,4.9c-2.8,0.2-5.1-1.2-6.6-3.6
			c-1.4-2.3-1.2-4.7,0.3-6.9C211.2,63.1,213.9,61,216.9,59z"/>
		<path class="st0" d="M219.9,46.3c-1.5-1.9-2.9-3.6-4-5.4c-1.1-1.8-1.2-3.7,0.2-5.4c1.4-1.8,3.2-2.5,5.4-2c2.2,0.4,3.6,1.8,4.1,3.9
			c0.4,1.8,0,3.5-1.2,4.8C223,43.6,221.6,44.8,219.9,46.3z"/>
		<path class="st0" d="M183.6,57.4c-6.4,0-12.7,0-19,0c0.1-3.2,1.4-5.7,4-7.3c3.4-2.2,7.1-2.3,10.7-0.4
			C182.1,51.3,183.5,54,183.6,57.4z"/>
		<path class="st0" d="M423.2,57.5c-6.2,0-12.5,0-18.9,0c0-3,1.2-5.4,3.6-7c3.5-2.5,7.3-2.6,11.1-0.6
			C421.8,51.5,423.5,54.8,423.2,57.5z"/>
		<path class="st0" d="M117.6,63c0.3,3.7,0.7,7-1.1,10.1c-0.4,0.7-1,1.5-1.6,1.9c-3.3,2.2-6.9,2.8-10.7,2c-0.9-0.2-1.7-0.7-2.5-1.2
			c-2.6-2-2.6-5.6,0-7.5c0.9-0.7,1.9-1.3,2.9-1.6C108.8,65.4,113.1,64.3,117.6,63z"/>
		<path class="st0" d="M327.5,63.3c0.4,2.8,0.6,5.5-0.2,8.2c-0.6,2.1-1.8,3.7-3.9,4.6c-2.9,1.2-5.9,1.8-9,1c-0.7-0.2-1.4-0.5-2-0.9
			c-2.8-1.7-3.1-5.4-0.6-7.6c0.6-0.5,1.2-1,1.9-1.3C318.1,65.3,322.8,64.6,327.5,63.3z"/>
	</g>
</g>
<g id="Amazon" class="st1">
	<g id="形状_4_3_" class="st2">
		<g id="形状_4">
			<g>
				<path class="st3" d="M293.9,69.7c-6.4-3.6-13.8-4.6-20.9-4.5l19-27.1c1.8-2.4,2.7-4,2.8-5.1l0-7c0-1.2-0.9-2.1-2.1-2.1L256,24
					c-1.1,0-2.1,0.8-2.1,2.1v8.2c0,1.2,0.9,2.1,2.1,2.1l19.1,0l-22,31.5c-1.3,2-1.4,4.3-1.4,5.6v8.3c0,1.2,1.3,2.6,2.6,1.9
					c12.5-6.6,27.4-6,38.7-0.1c1.4,0.7,2.7-0.7,2.7-1.9v-8.7C295.7,71.8,295.3,70.6,293.9,69.7z M166.5,22.9
					c-6.5,0-12.7,3.4-15.4,10.6c-3.1-7.2-7.5-10.6-14.5-10.6c-6.9,0-12,3.4-14.7,10.6h-0.2V26c-0.1-1-0.9-1.9-2-1.9l-10.4,0
					c-1.2,0-2.2,0.9-2.2,2.1l0,57.2c0.1,1,0.9,1.8,2,1.9h11.1c1.2,0,2.1-0.9,2.1-2.1l0-30.3c0-6.6-0.3-15.8,7.7-15.8
					c7.9,0,6.9,9.4,6.9,15.8l0,30.3c0,1.1,0.9,2,2,2.1h11.1c1.2,0,2.1-0.9,2.1-2.1V52.9c0-3.2-0.1-8.1,1-10.9c1.1-2.9,4-4.7,6.7-4.7
					c3.2,0,5.7,1.1,6.5,4.9c0.5,2.3,0.3,8.3,0.3,10.7l0,30.3c0,1.1,0.9,2,2,2.1h11.1c1.2,0,2.1-0.9,2.1-2.1l0-36.1
					c0-6.1,0.7-13.1-2.8-17.9C176.3,24.8,171.2,22.9,166.5,22.9z M326.2,22.9c-16.1,0-25.1,13.8-25.1,31.6
					c0,17.7,8.8,31.9,25.1,31.9c15.6,0,25.5-13.8,25.5-31.3C351.7,37.1,342.7,22.9,326.2,22.9z M326.2,74.6
					c-8.7,0-8.6-14.9-8.6-21.9s0.5-18.2,8.7-18.2c3.5,0,6,1.6,7.3,5.5c1.5,4.6,1.7,10.3,1.7,15.2C335.3,62.6,334.8,74.6,326.2,74.6z
					 M402.8,29.7c-3.1-4.9-8-6.7-13-6.7c-7.7,0-12.1,3.7-15.2,11.5h-0.2v-8.7c-0.2-0.9-1-1.6-2-1.6l-10.3,0c-1.1,0-2,0.8-2.1,1.9
					l0,57.2c0,1.1,0.9,2,2,2.1h11.1c1.2,0,2.2-0.9,2.2-2.1V52.4c0-3.8,0.2-7.3,1.8-10.8c1.2-2.8,3.7-4.6,6.4-4.6c7.7,0,7,9.1,7,15.4
					v31c0.1,1,1,1.7,2,1.8h11.2c1.1,0,2-0.8,2.1-1.8v-36C405.7,41.9,405.7,34.2,402.8,29.7z M240.4,64.4V47.1
					c0-7.4,0.5-14.1-4.9-19.2c-4.3-4.1-11.4-5.5-16.8-5.5c-10.6,0-22.4,4-24.9,17.1c-0.3,1.4,0.8,2.1,1.7,2.3l10.8,1.2
					c1-0.1,1.7-1,1.9-2c0.9-4.5,4.7-6.7,9-6.7c2.3,0,4.9,0.8,6.3,2.9c1.6,2.3,1.4,5.4,1.4,8.1v1.4c-6.5,0.7-14.9,1.2-20.9,3.9
					c-7,3-11.9,9.2-11.9,18.2c0,11.6,7.3,17.4,16.7,17.4c7.9,0,12.2-1.9,18.4-8.1c2,2.9,2.7,4.3,6.4,7.4c0.8,0.4,1.9,0.4,2.6-0.3
					l0,0c2.2-2,6.3-5.5,8.5-7.4c0.9-0.7,0.7-1.9,0-3C242.5,71.9,240.4,69.7,240.4,64.4z M222.7,69.7c-1.8,3.1-4.6,5.1-7.7,5.1
					c-4.3,0-6.8-3.3-6.8-8.1c0-9.5,8.5-11.2,16.6-11.2v2.4C224.7,62.3,224.8,65.9,222.7,69.7z M94.4,64.4V47.1
					c0-7.4,0.5-14.1-4.9-19.2c-4.3-4.1-11.4-5.5-16.8-5.5c-10.6,0-22.4,4-24.9,17.1c-0.3,1.4,0.7,2.1,1.7,2.3l10.8,1.2
					c1-0.1,1.7-1,1.9-2c0.9-4.5,4.7-6.7,9-6.7c2.3,0,4.9,0.8,6.3,2.9c1.6,2.3,1.4,5.4,1.4,8.1v1.4c-6.5,0.7-14.9,1.2-20.9,3.9
					c-7,3-11.9,9.2-11.9,18.2c0,11.6,7.3,17.4,16.7,17.4c7.9,0,12.2-1.9,18.4-8.1c2,2.9,2.7,4.3,6.4,7.4c0.8,0.4,1.9,0.4,2.6-0.3
					l0,0c2.2-2,6.3-5.5,8.5-7.4c0.9-0.7,0.7-1.9,0-3C96.5,71.9,94.4,69.7,94.4,64.4z M76.7,69.7c-1.8,3.1-4.6,5.1-7.7,5.1
					c-4.3,0-6.8-3.3-6.8-8.1c0-9.5,8.5-11.2,16.6-11.2v2.4C78.7,62.3,78.9,65.9,76.7,69.7z"/>
			</g>
		</g>
	</g>
	<g id="形状_4_2_" class="st2">
		<g id="形状_4_1_">
			<g>
				<path class="st4" d="M266.1,102.3c-23.4,9.9-48.9,14.7-72.1,14.7c-34.3,0-67.6-9.4-94.5-25.1c-2.4-1.4-4.1,1-2.1,2.8
					c24.9,22.5,57.9,36,94.4,36c26.1,0,56.4-8.2,77.3-23.6C272.6,104.6,269.7,100.8,266.1,102.3z M286.8,90.4
					c-2.3-2.8-21.9-5.2-33.9,3.2c-1.8,1.3-1.5,3.1,0.5,2.8c6.7-0.8,21.7-2.6,24.4,0.8c2.7,3.4-3,17.5-5.5,23.8
					c-0.8,1.9,0.9,2.7,2.6,1.2C286.2,112.9,289.1,93.3,286.8,90.4z"/>
			</g>
		</g>
	</g>
</g>
</svg>
